<svg xmlns="http://www.w3.org/2000/svg">
  <symbol id="icon-consulting" viewBox="0 0 24 24">
    <path d="M5 6.5h14M5 11.5h9M5 16.5h6" />
    <path d="M4 4h16v13H9l-4 3v-3H4V4z" />
  </symbol>
  <symbol id="icon-implementation" viewBox="0 0 24 24">
    <path d="M7 7h10M7 12h7M7 17h4" />
    <path d="M5 3h14v18H5V3z" />
    <path d="M15 16l2 2 4-5" />
  </symbol>
  <symbol id="icon-integration" viewBox="0 0 24 24">
    <path d="M7 7l10 10M17 7L7 17" />
    <path d="M5 5h4v4H5V5zM15 5h4v4h-4V5zM5 15h4v4H5v-4zM15 15h4v4h-4v-4z" />
  </symbol>
  <symbol id="icon-delivery" viewBox="0 0 24 24">
    <path d="M4 17h16M6 17V8l6-4 6 4v9" />
    <path d="M9 17v-6h6v6" />
  </symbol>
  <symbol id="icon-fixed-scope" viewBox="0 0 24 24">
    <path d="M5 12l4 4 10-10" />
    <path d="M4 4h16v16H4V4z" />
  </symbol>
  <symbol id="icon-uae" viewBox="0 0 24 24">
    <path d="M12 21s7-5.4 7-11a7 7 0 1 0-14 0c0 5.6 7 11 7 11z" />
    <path d="M12 13a3 3 0 1 0 0-6 3 3 0 0 0 0 6z" />
  </symbol>
</svg>
